<svg version="1.1" id="Layer_1" xmlns="http://www.w3.org/2000/svg" xmlns:xlink="http://www.w3.org/1999/xlink" x="0px" y="0px"
	 width="100%" viewBox="0 0 758 1069" enable-background="new 0 0 758 1069" xml:space="preserve">
<path fill="#FFFFFF" opacity="1.000000" stroke="none" 
	d="
M278.000000,1070.000000 
	C185.746475,1070.000000 93.492943,1070.000000 1.000000,1070.000000 
	C1.000000,996.643555 1.000000,923.286804 1.351588,849.562866 
	C7.867456,860.655701 13.915989,872.179871 20.221622,883.561584 
	C31.205420,903.387390 42.344959,923.126892 53.424553,942.899658 
	C59.869476,954.401184 66.531975,965.788330 72.651283,977.460388 
	C74.526299,981.036804 75.789841,985.373291 75.853989,989.385437 
	C76.173576,1009.372437 76.000000,1029.367188 76.000000,1049.359253 
	C76.000000,1054.137817 76.000000,1058.916382 76.000000,1063.762939 
	C91.544968,1063.762939 106.612389,1063.762939 122.000000,1063.762939 
	C122.000000,1061.898804 122.000000,1060.267822 122.000000,1058.636719 
	C122.000000,1034.646240 121.952080,1010.655579 122.076469,986.665771 
	C122.088486,984.348083 122.736588,981.807800 123.819252,979.755920 
	C136.647873,955.443054 149.601532,931.196167 162.551895,906.947693 
	C169.672165,893.615601 176.879700,880.330078 183.985489,866.990295 
	C187.431046,860.521851 190.733093,853.976929 194.341400,847.000000 
	C178.242844,847.000000 162.768646,847.210999 147.306824,846.866516 
	C142.892151,846.768066 140.949707,848.512451 139.331955,852.141968 
	C132.997192,866.354187 126.438400,880.466248 120.049286,894.654541 
	C115.837021,904.008606 111.836876,913.458252 107.616974,922.808838 
	C105.153564,928.267395 102.444542,933.615051 99.342262,940.058960 
	C95.567558,932.047791 92.305305,925.083313 89.008598,918.135132 
	C78.333656,895.636230 67.595818,873.166931 57.026413,850.618652 
	C55.694035,847.776123 54.009811,846.911072 50.979549,846.935608 
	C34.320621,847.070557 17.660025,847.000000 1.000000,847.000000 
	C1.000000,565.117554 1.000000,283.235077 1.000000,1.000000 
	C62.689545,1.000000 124.379761,1.000000 186.392914,1.389144 
	C171.502975,2.473917 159.490692,11.729131 155.923111,26.046780 
	C151.966644,41.925095 153.540314,57.673794 157.724258,73.016373 
	C161.550308,87.046501 166.552124,100.813126 171.876328,114.365654 
	C182.916748,142.468491 197.856506,168.587509 214.386597,193.762344 
	C225.330994,210.430328 236.981247,226.634842 248.255249,242.959610 
	C214.946396,263.346191 199.217957,293.647552 198.883865,332.751282 
	C309.895935,332.751282 420.300110,332.751282 531.142517,332.751282 
	C531.370544,293.203949 514.587036,263.265778 481.661377,242.527771 
	C486.384796,236.124954 490.634033,230.397308 494.849548,224.644974 
	C512.780090,200.177902 528.828796,174.518845 542.987976,147.705322 
	C556.296875,122.502029 567.594849,96.439774 573.719482,68.471512 
	C576.571228,55.448925 577.669983,42.180107 574.987366,28.902512 
	C572.844177,18.295259 567.433716,9.868307 557.431213,5.272961 
	C552.918823,3.199892 547.828247,2.385478 543.000000,1.000004 
	C614.970825,1.000000 686.941589,1.000000 759.000000,1.000000 
	C759.000000,282.689972 759.000000,564.379944 758.741333,846.541016 
	C758.318054,847.063599 758.153442,847.115112 757.526611,847.089233 
	C699.131409,847.011963 641.198364,847.011963 583.269287,847.011963 
	C583.269287,860.602722 583.269287,873.674438 583.269287,887.144775 
	C604.942810,887.144775 626.350342,887.144775 648.151611,887.144775 
	C648.151611,946.283569 648.151611,1005.021118 648.151611,1063.719360 
	C663.958923,1063.719360 679.363953,1063.719360 695.165771,1063.719360 
	C695.165771,1004.702271 695.165771,945.964722 695.165771,886.833435 
	C716.370178,886.833435 737.174988,886.833435 758.229004,886.910645 
	C758.652161,886.991882 758.826111,886.995911 759.000000,887.000000 
	C759.000000,947.958679 759.000000,1008.917297 759.000000,1070.000000 
	C608.643372,1070.000000 458.286682,1070.000000 307.619202,1069.601562 
	C310.380920,1068.804443 313.455505,1068.420654 316.525757,1068.005005 
	C338.802399,1064.989014 356.343781,1054.198853 370.770264,1036.967163 
	C388.556671,1015.722351 394.467316,990.734497 395.873260,964.145203 
	C396.342560,955.269653 395.423065,946.311523 394.981171,937.398987 
	C394.137665,920.385437 390.018250,904.174927 381.648468,889.319458 
	C370.086517,868.798218 353.826996,853.582031 331.043854,845.931702 
	C316.140411,840.927246 300.802582,840.366150 285.395966,841.120667 
	C276.315552,841.565369 267.036407,842.223389 258.294250,844.502441 
	C232.118210,851.326233 213.693985,868.279419 201.142471,891.683044 
	C192.283798,908.200928 188.998276,926.456848 188.219986,944.922241 
	C187.716263,956.872925 188.918839,968.953613 190.093979,980.903564 
	C191.875015,999.014709 197.960815,1015.610107 208.779770,1030.464478 
	C222.384964,1049.144409 239.355408,1062.636475 262.602173,1067.012695 
	C267.740173,1067.980103 272.867676,1069.002808 278.000000,1070.000000 
M507.591339,484.060699 
	C503.007568,479.170502 497.645020,476.807892 490.664215,476.885162 
	C464.671509,477.172882 438.673645,476.988953 412.677795,477.026825 
	C411.077271,477.029144 409.353424,477.102905 407.896759,477.676422 
	C396.227051,482.270782 392.314819,490.610107 394.210236,502.618835 
	C395.370239,509.968109 403.328278,518.564636 414.078918,518.093445 
	C424.058136,517.656006 434.071716,517.994934 444.070068,518.018860 
	C444.689850,518.020386 445.309021,518.256104 446.069580,518.411743 
	C445.963928,520.004578 445.870544,521.412537 445.765289,523.000000 
	C434.414581,523.000000 423.433899,522.950195 412.454529,523.047607 
	C410.559631,523.064392 408.513916,523.355530 406.804657,524.117981 
	C398.057281,528.019958 393.634430,534.581238 393.923920,544.471680 
	C394.254761,555.775513 402.294006,563.999268 413.710999,563.999878 
	C424.341614,564.000427 434.972229,564.000000 445.641632,564.000000 
	C445.641632,565.875977 445.641632,567.378357 445.641632,568.799438 
	C445.127350,568.905090 444.969849,568.965637 444.812256,568.965881 
	C434.314117,568.980347 423.815857,568.970154 413.317932,569.023132 
	C411.866608,569.030457 410.353638,569.139709 408.976440,569.556335 
	C398.368439,572.764709 393.945374,579.333984 394.000031,591.618835 
	C394.038086,600.182861 401.470337,609.382263 409.866272,609.876465 
	C423.407867,610.673401 436.996490,610.678101 450.565826,610.990723 
	C453.326721,611.054382 456.090363,611.000000 458.999939,611.000000 
	C458.999939,636.106079 459.127686,660.587952 458.933319,685.067200 
	C458.861481,694.116577 451.561829,703.227173 443.084778,703.977356 
	C436.707947,704.541687 430.293549,704.944458 423.894958,704.956543 
	C380.068665,705.039307 336.242065,704.955994 292.415741,705.030884 
	C281.439484,705.049622 271.450195,696.304749 271.792725,684.557373 
	C272.487000,660.748047 272.000000,636.904236 272.000000,613.074646 
	C272.000000,611.470032 272.000000,609.865417 272.000000,608.000000 
	C286.161316,608.000000 299.799011,608.118164 313.431915,607.915039 
	C316.745667,607.865723 320.132080,607.052063 323.332489,606.084778 
	C333.146637,603.118774 339.406921,590.997253 335.340210,579.735535 
	C332.422638,571.656128 325.134766,566.001831 316.703186,566.000427 
	C305.911316,565.998657 295.119476,566.000000 284.193115,566.000000 
	C284.193115,564.180664 284.193115,562.778137 284.193115,561.000000 
	C294.509430,561.000000 304.638824,561.000000 314.768219,561.000000 
	C327.249115,561.000000 332.993103,556.005310 336.132202,543.870239 
	C339.158722,532.170532 327.250031,519.143066 317.139069,519.831909 
	C306.234436,520.574890 295.240082,520.000000 284.213989,520.000000 
	C284.213989,518.147400 284.213989,516.744568 284.213989,515.000000 
	C294.221954,515.000000 304.021820,515.044922 313.820770,514.971313 
	C316.590027,514.950562 319.494598,515.054871 322.100250,514.292419 
	C332.393402,511.280670 337.906189,501.612335 336.003723,490.485809 
	C334.254486,480.255554 326.895020,474.001007 316.597961,474.000458 
	C289.935486,473.999054 263.272858,473.966309 236.610733,474.062317 
	C234.418457,474.070221 232.055023,474.583649 230.069168,475.504791 
	C221.695175,479.389038 217.962891,486.189453 217.979675,495.340210 
	C218.034103,525.002136 217.961121,554.664307 218.047928,584.326050 
	C218.059113,588.146179 218.722031,591.964478 219.109131,596.059753 
	C211.749222,601.675293 206.394073,609.464539 203.036224,618.571411 
	C196.688354,635.787598 195.814163,653.517700 197.911362,671.643677 
	C199.864578,688.525330 204.993240,704.322021 212.791245,719.273010 
	C217.446976,728.199402 222.701782,736.813416 227.660187,745.520203 
	C178.921646,752.251343 163.311417,778.585510 167.651596,815.455383 
	C178.315903,814.971985 189.032013,814.346924 199.757233,814.033020 
	C215.503860,813.572021 231.257126,813.338806 247.007339,812.998413 
	C262.091278,812.672424 277.174469,812.309448 292.258881,812.006409 
	C310.175049,811.646484 328.091949,811.087830 346.008911,811.073059 
	C362.092285,811.059753 378.176270,811.661194 394.259766,812.001465 
	C409.677002,812.327576 425.093353,812.698303 440.511200,812.991943 
	C459.760376,813.358643 479.009949,813.719116 498.260773,813.978027 
	C508.090759,814.110291 517.928162,813.834961 527.754272,814.072510 
	C537.782227,814.314880 547.800476,814.960083 557.749634,815.425598 
	C560.145569,798.003906 557.873291,782.567749 547.500916,769.009094 
	C537.116943,755.435303 521.922913,750.704834 507.290833,747.115051 
	C513.818665,734.779663 520.814087,722.499878 526.918457,709.792114 
	C534.864990,693.249451 538.568420,675.413452 538.737793,657.204102 
	C538.835144,646.738464 537.250549,636.012024 534.710083,625.830383 
	C531.666443,613.632385 525.615906,602.739319 514.834717,595.096497 
	C513.221558,593.952881 512.130188,590.974243 512.117798,588.836914 
	C511.944244,558.842590 511.927948,528.846619 512.068054,498.851990 
	C512.092590,493.610046 511.036652,488.915222 507.591339,484.060699 
M408.000000,1005.500000 
	C408.000000,1024.929565 408.000000,1044.359009 408.000000,1063.705811 
	C423.319519,1063.705811 438.058441,1063.705811 453.194763,1063.705811 
	C453.194763,1035.673462 453.194763,1007.933350 453.194763,980.000610 
	C472.243378,980.000610 490.996796,978.771362 509.504822,980.374756 
	C525.400085,981.751770 530.844604,986.134399 532.819336,1003.468994 
	C534.107666,1014.777588 533.305969,1026.309204 534.127075,1037.691406 
	C534.672363,1045.250610 536.520508,1052.709351 537.603210,1060.239258 
	C538.057861,1063.401367 539.645691,1064.100220 542.639038,1064.067993 
	C556.803589,1063.915649 570.970703,1064.006714 585.136902,1063.988525 
	C586.408386,1063.986816 587.679565,1063.822754 589.424927,1063.701050 
	C588.948792,1061.110352 589.329834,1057.930176 588.008301,1056.867676 
	C580.809204,1051.079224 580.253540,1043.076416 580.061157,1035.006104 
	C579.811096,1024.512451 580.298706,1013.996277 579.879578,1003.513428 
	C579.654907,997.895081 578.486511,992.259949 577.233948,986.748230 
	C574.325867,973.951477 566.293640,965.445740 553.593262,960.486328 
	C562.829529,957.518494 569.936462,952.370911 574.917297,944.948914 
	C584.414856,930.796692 588.076904,915.212830 585.030823,898.200439 
	C582.108704,881.880920 574.032227,868.941650 560.801208,858.927185 
	C548.179688,849.373901 533.312012,847.475952 518.502502,847.207703 
	C483.015320,846.565002 447.508606,846.997437 412.009766,847.010193 
	C410.739319,847.010620 409.468933,847.162415 408.000000,847.256348 
	C408.000000,899.881897 408.000000,952.190979 408.000000,1005.500000 
M246.375534,450.035370 
	C254.048782,455.431244 262.646790,458.608551 272.000000,461.277832 
	C272.000000,447.457764 272.394714,434.291443 271.859863,421.162994 
	C271.508972,412.550354 280.741730,402.943787 289.717010,402.959015 
	C339.876648,403.044189 390.036560,402.967468 440.196198,403.041443 
	C446.407440,403.050598 451.873047,405.700043 454.826508,411.107056 
	C457.047211,415.172546 458.609283,420.069794 458.816895,424.671143 
	C459.360077,436.707825 459.000000,448.785248 459.000000,461.015320 
	C508.071381,446.991882 530.713013,403.141968 530.552979,370.068024 
	C522.487000,373.695190 514.631348,377.754211 506.407593,380.828400 
	C480.549591,390.494415 454.179443,396.528229 426.307068,391.042725 
	C407.110992,387.264801 390.538300,378.568054 376.031067,365.594299 
	C372.012268,362.000305 367.665771,358.772705 363.939850,355.757538 
	C359.132477,360.227264 353.166473,366.084503 346.866211,371.556915 
	C338.121368,379.152679 327.779083,384.291199 316.943726,387.807861 
	C301.285400,392.889862 285.151062,394.248810 268.591675,392.153625 
	C252.459549,390.112549 236.983109,386.118317 222.016586,379.969940 
	C214.403717,376.842468 206.922409,373.394806 199.228439,370.024811 
	C201.413284,404.676544 217.103287,431.062164 246.375534,450.035370 
M718.317078,1057.847778 
	C721.861816,1061.728882 725.812744,1064.480347 731.516357,1064.064087 
	C737.052429,1063.659912 743.010315,1059.245728 744.815857,1053.599121 
	C746.158020,1049.401611 743.491028,1041.109497 739.972229,1038.454224 
	C735.342957,1034.960815 726.102051,1035.473999 723.119385,1037.326660 
	C717.487732,1040.824463 713.628113,1049.220459 718.317078,1057.847778 
z"/>
<path fill="#030304" opacity="1.000000" stroke="none" 
	d="
M542.539368,1.000004 
	C547.828247,2.385478 552.918823,3.199892 557.431213,5.272961 
	C567.433716,9.868307 572.844177,18.295259 574.987366,28.902512 
	C577.669983,42.180107 576.571228,55.448925 573.719482,68.471512 
	C567.594849,96.439774 556.296875,122.502029 542.987976,147.705322 
	C528.828796,174.518845 512.780090,200.177902 494.849548,224.644974 
	C490.634033,230.397308 486.384796,236.124954 481.661377,242.527771 
	C514.587036,263.265778 531.370544,293.203949 531.142517,332.751282 
	C420.300110,332.751282 309.895935,332.751282 198.883865,332.751282 
	C199.217957,293.647552 214.946396,263.346191 248.255249,242.959610 
	C236.981247,226.634842 225.330994,210.430328 214.386597,193.762344 
	C197.856506,168.587509 182.916748,142.468491 171.876328,114.365654 
	C166.552124,100.813126 161.550308,87.046501 157.724258,73.016373 
	C153.540314,57.673794 151.966644,41.925095 155.923111,26.046780 
	C159.490692,11.729131 171.502975,2.473917 186.857910,1.389144 
	C190.692902,1.000000 194.385818,1.000000 198.696289,1.400375 
	C214.904907,2.445014 229.476410,7.087722 243.312119,13.865981 
	C258.752014,21.430147 272.769135,31.162201 283.353180,44.975742 
	C291.410828,55.492004 299.773193,65.930603 306.450012,77.312950 
	C316.783142,94.928391 324.141968,114.006096 329.998108,133.603088 
	C339.375824,164.984619 344.803040,197.125443 348.198395,229.810516 
	C359.464294,229.810516 370.562073,229.810516 381.625031,229.810516 
	C382.108398,227.783813 382.701569,225.940598 382.974152,224.051117 
	C385.014465,209.908676 386.705505,195.709488 389.051239,181.618851 
	C393.178009,156.829742 399.710632,132.707993 408.860229,109.223671 
	C419.391510,82.192978 433.343872,57.608959 454.252472,37.084091 
	C471.487579,20.165257 491.837189,9.507980 515.117004,4.033332 
	C520.359192,2.800543 525.703003,1.999689 531.000000,0.999999 
	C534.692932,1.000000 538.385803,1.000000 542.539368,1.000004 
z"/>
<path fill="#030304" opacity="1.000000" stroke="none" 
	d="
M278.468658,1070.000000 
	C272.867676,1069.002808 267.740173,1067.980103 262.602173,1067.012695 
	C239.355408,1062.636475 222.384964,1049.144409 208.779770,1030.464478 
	C197.960815,1015.610107 191.875015,999.014709 190.093979,980.903564 
	C188.918839,968.953613 187.716263,956.872925 188.219986,944.922241 
	C188.998276,926.456848 192.283798,908.200928 201.142471,891.683044 
	C213.693985,868.279419 232.118210,851.326233 258.294250,844.502441 
	C267.036407,842.223389 276.315552,841.565369 285.395966,841.120667 
	C300.802582,840.366150 316.140411,840.927246 331.043854,845.931702 
	C353.826996,853.582031 370.086517,868.798218 381.648468,889.319458 
	C390.018250,904.174927 394.137665,920.385437 394.981171,937.398987 
	C395.423065,946.311523 396.342560,955.269653 395.873260,964.145203 
	C394.467316,990.734497 388.556671,1015.722351 370.770264,1036.967163 
	C356.343781,1054.198853 338.802399,1064.989014 316.525757,1068.005005 
	C313.455505,1068.420654 310.380920,1068.804443 307.154175,1069.601562 
	C297.645782,1070.000000 288.291534,1070.000000 278.468658,1070.000000 
M234.000000,950.605591 
	C234.332962,956.852112 234.733475,963.095947 234.984848,969.345764 
	C235.508453,982.364319 239.186966,994.456055 246.005707,1005.490417 
	C251.660995,1014.642212 259.166168,1021.728760 269.295502,1026.137695 
	C280.115295,1030.847168 291.038849,1031.924683 302.609619,1030.084717 
	C314.497284,1028.194336 324.577789,1022.796387 332.251587,1013.999756 
	C345.029938,999.351624 348.854980,981.179932 349.964722,962.338745 
	C350.672424,950.324097 349.908936,938.305359 346.884644,926.676514 
	C342.919434,911.429749 336.344604,897.668152 322.315674,888.676147 
	C309.773865,880.637268 296.364563,878.445618 281.836670,880.953735 
	C266.135773,883.664429 254.504456,892.198059 245.999298,905.296875 
	C237.258682,918.758301 235.119583,934.076599 234.000000,950.605591 
z"/>
<path fill="#FFFFFF" opacity="1.000000" stroke="none" 
	d="
M530.531372,0.999999 
	C525.703003,1.999689 520.359192,2.800543 515.117004,4.033332 
	C491.837189,9.507980 471.487579,20.165257 454.252472,37.084091 
	C433.343872,57.608959 419.391510,82.192978 408.860229,109.223671 
	C399.710632,132.707993 393.178009,156.829742 389.051239,181.618851 
	C386.705505,195.709488 385.014465,209.908676 382.974152,224.051117 
	C382.701569,225.940598 382.108398,227.783813 381.625031,229.810516 
	C370.562073,229.810516 359.464294,229.810516 348.198395,229.810516 
	C344.803040,197.125443 339.375824,164.984619 329.998108,133.603088 
	C324.141968,114.006096 316.783142,94.928391 306.450012,77.312950 
	C299.773193,65.930603 291.410828,55.492004 283.353180,44.975742 
	C272.769135,31.162201 258.752014,21.430147 243.312119,13.865981 
	C229.476410,7.087722 214.904907,2.445014 199.156921,1.400375 
	C309.354218,1.000000 419.708466,1.000000 530.531372,0.999999 
z"/>
<path fill="#030304" opacity="1.000000" stroke="none" 
	d="
M1.000000,847.333313 
	C17.660025,847.000000 34.320621,847.070557 50.979549,846.935608 
	C54.009811,846.911072 55.694035,847.776123 57.026413,850.618652 
	C67.595818,873.166931 78.333656,895.636230 89.008598,918.135132 
	C92.305305,925.083313 95.567558,932.047791 99.342262,940.058960 
	C102.444542,933.615051 105.153564,928.267395 107.616974,922.808838 
	C111.836876,913.458252 115.837021,904.008606 120.049286,894.654541 
	C126.438400,880.466248 132.997192,866.354187 139.331955,852.141968 
	C140.949707,848.512451 142.892151,846.768066 147.306824,846.866516 
	C162.768646,847.210999 178.242844,847.000000 194.341400,847.000000 
	C190.733093,853.976929 187.431046,860.521851 183.985489,866.990295 
	C176.879700,880.330078 169.672165,893.615601 162.551895,906.947693 
	C149.601532,931.196167 136.647873,955.443054 123.819252,979.755920 
	C122.736588,981.807800 122.088486,984.348083 122.076469,986.665771 
	C121.952080,1010.655579 122.000000,1034.646240 122.000000,1058.636719 
	C122.000000,1060.267822 122.000000,1061.898804 122.000000,1063.762939 
	C106.612389,1063.762939 91.544968,1063.762939 76.000000,1063.762939 
	C76.000000,1058.916382 76.000000,1054.137817 76.000000,1049.359253 
	C76.000000,1029.367188 76.173576,1009.372437 75.853989,989.385437 
	C75.789841,985.373291 74.526299,981.036804 72.651283,977.460388 
	C66.531975,965.788330 59.869476,954.401184 53.424553,942.899658 
	C42.344959,923.126892 31.205420,903.387390 20.221622,883.561584 
	C13.915989,872.179871 7.867456,860.655701 1.351588,849.097839 
	C1.000000,848.555542 1.000000,848.111084 1.000000,847.333313 
z"/>
<path fill="#030304" opacity="1.000000" stroke="none" 
	d="
M757.988892,847.166565 
	C758.153442,847.115112 758.318054,847.063599 758.741333,847.006104 
	C759.000000,860.020874 759.000000,873.041809 759.000000,886.531372 
	C758.826111,886.995911 758.652161,886.991882 758.047974,886.544678 
	C757.419556,874.050598 757.199280,861.999817 757.066895,849.948120 
	C757.056702,849.024414 757.666992,848.093933 757.988892,847.166565 
z"/>
<path fill="#030304" opacity="1.000000" stroke="none" 
	d="
M507.837952,484.343842 
	C511.036652,488.915222 512.092590,493.610046 512.068054,498.851990 
	C511.927948,528.846619 511.944244,558.842590 512.117798,588.836914 
	C512.130188,590.974243 513.221558,593.952881 514.834717,595.096497 
	C525.615906,602.739319 531.666443,613.632385 534.710083,625.830383 
	C537.250549,636.012024 538.835144,646.738464 538.737793,657.204102 
	C538.568420,675.413452 534.864990,693.249451 526.918457,709.792114 
	C520.814087,722.499878 513.818665,734.779663 507.290833,747.115051 
	C521.922913,750.704834 537.116943,755.435303 547.500916,769.009094 
	C557.873291,782.567749 560.145569,798.003906 557.749634,815.425598 
	C547.800476,814.960083 537.782227,814.314880 527.754272,814.072510 
	C517.928162,813.834961 508.090759,814.110291 498.260773,813.978027 
	C479.009949,813.719116 459.760376,813.358643 440.511200,812.991943 
	C425.093353,812.698303 409.677002,812.327576 394.259766,812.001465 
	C378.176270,811.661194 362.092285,811.059753 346.008911,811.073059 
	C328.091949,811.087830 310.175049,811.646484 292.258881,812.006409 
	C277.174469,812.309448 262.091278,812.672424 247.007339,812.998413 
	C231.257126,813.338806 215.503860,813.572021 199.757233,814.033020 
	C189.032013,814.346924 178.315903,814.971985 167.651596,815.455383 
	C163.311417,778.585510 178.921646,752.251343 227.660187,745.520203 
	C222.701782,736.813416 217.446976,728.199402 212.791245,719.273010 
	C204.993240,704.322021 199.864578,688.525330 197.911362,671.643677 
	C195.814163,653.517700 196.688354,635.787598 203.036224,618.571411 
	C206.394073,609.464539 211.749222,601.675293 219.109131,596.059753 
	C218.722031,591.964478 218.059113,588.146179 218.047928,584.326050 
	C217.961121,554.664307 218.034103,525.002136 217.979675,495.340210 
	C217.962891,486.189453 221.695175,479.389038 230.069168,475.504791 
	C232.055023,474.583649 234.418457,474.070221 236.610733,474.062317 
	C263.272858,473.966309 289.935486,473.999054 316.597961,474.000458 
	C326.895020,474.001007 334.254486,480.255554 336.003723,490.485809 
	C337.906189,501.612335 332.393402,511.280670 322.100250,514.292419 
	C319.494598,515.054871 316.590027,514.950562 313.820770,514.971313 
	C304.021820,515.044922 294.221954,515.000000 284.213989,515.000000 
	C284.213989,516.744568 284.213989,518.147400 284.213989,520.000000 
	C295.240082,520.000000 306.234436,520.574890 317.139069,519.831909 
	C327.250031,519.143066 339.158722,532.170532 336.132202,543.870239 
	C332.993103,556.005310 327.249115,561.000000 314.768219,561.000000 
	C304.638824,561.000000 294.509430,561.000000 284.193115,561.000000 
	C284.193115,562.778137 284.193115,564.180664 284.193115,566.000000 
	C295.119476,566.000000 305.911316,565.998657 316.703186,566.000427 
	C325.134766,566.001831 332.422638,571.656128 335.340210,579.735535 
	C339.406921,590.997253 333.146637,603.118774 323.332489,606.084778 
	C320.132080,607.052063 316.745667,607.865723 313.431915,607.915039 
	C299.799011,608.118164 286.161316,608.000000 272.000000,608.000000 
	C272.000000,609.865417 272.000000,611.470032 272.000000,613.074646 
	C272.000000,636.904236 272.487000,660.748047 271.792725,684.557373 
	C271.450195,696.304749 281.439484,705.049622 292.415741,705.030884 
	C336.242065,704.955994 380.068665,705.039307 423.894958,704.956543 
	C430.293549,704.944458 436.707947,704.541687 443.084778,703.977356 
	C451.561829,703.227173 458.861481,694.116577 458.933319,685.067200 
	C459.127686,660.587952 458.999939,636.106079 458.999939,611.000000 
	C456.090363,611.000000 453.326721,611.054382 450.565826,610.990723 
	C436.996490,610.678101 423.407867,610.673401 409.866272,609.876465 
	C401.470337,609.382263 394.038086,600.182861 394.000031,591.618835 
	C393.945374,579.333984 398.368439,572.764709 408.976440,569.556335 
	C410.353638,569.139709 411.866608,569.030457 413.317932,569.023132 
	C423.815857,568.970154 434.314117,568.980347 444.812256,568.965881 
	C444.969849,568.965637 445.127350,568.905090 445.641632,568.799438 
	C445.641632,567.378357 445.641632,565.875977 445.641632,564.000000 
	C434.972229,564.000000 424.341614,564.000427 413.710999,563.999878 
	C402.294006,563.999268 394.254761,555.775513 393.923920,544.471680 
	C393.634430,534.581238 398.057281,528.019958 406.804657,524.117981 
	C408.513916,523.355530 410.559631,523.064392 412.454529,523.047607 
	C423.433899,522.950195 434.414581,523.000000 445.765289,523.000000 
	C445.870544,521.412537 445.963928,520.004578 446.069580,518.411743 
	C445.309021,518.256104 444.689850,518.020386 444.070068,518.018860 
	C434.071716,517.994934 424.058136,517.656006 414.078918,518.093445 
	C403.328278,518.564636 395.370239,509.968109 394.210236,502.618835 
	C392.314819,490.610107 396.227051,482.270782 407.896759,477.676422 
	C409.353424,477.102905 411.077271,477.029144 412.677795,477.026825 
	C438.673645,476.988953 464.671509,477.172882 490.664215,476.885162 
	C497.645020,476.807892 503.007568,479.170502 507.837952,484.343842 
z"/>
<path fill="#030304" opacity="1.000000" stroke="none" 
	d="
M408.000000,1005.000000 
	C408.000000,952.190979 408.000000,899.881897 408.000000,847.256348 
	C409.468933,847.162415 410.739319,847.010620 412.009766,847.010193 
	C447.508606,846.997437 483.015320,846.565002 518.502502,847.207703 
	C533.312012,847.475952 548.179688,849.373901 560.801208,858.927185 
	C574.032227,868.941650 582.108704,881.880920 585.030823,898.200439 
	C588.076904,915.212830 584.414856,930.796692 574.917297,944.948914 
	C569.936462,952.370911 562.829529,957.518494 553.593262,960.486328 
	C566.293640,965.445740 574.325867,973.951477 577.233948,986.748230 
	C578.486511,992.259949 579.654907,997.895081 579.879578,1003.513428 
	C580.298706,1013.996277 579.811096,1024.512451 580.061157,1035.006104 
	C580.253540,1043.076416 580.809204,1051.079224 588.008301,1056.867676 
	C589.329834,1057.930176 588.948792,1061.110352 589.424927,1063.701050 
	C587.679565,1063.822754 586.408386,1063.986816 585.136902,1063.988525 
	C570.970703,1064.006714 556.803589,1063.915649 542.639038,1064.067993 
	C539.645691,1064.100220 538.057861,1063.401367 537.603210,1060.239258 
	C536.520508,1052.709351 534.672363,1045.250610 534.127075,1037.691406 
	C533.305969,1026.309204 534.107666,1014.777588 532.819336,1003.468994 
	C530.844604,986.134399 525.400085,981.751770 509.504822,980.374756 
	C490.996796,978.771362 472.243378,980.000610 453.194763,980.000610 
	C453.194763,1007.933350 453.194763,1035.673462 453.194763,1063.705811 
	C438.058441,1063.705811 423.319519,1063.705811 408.000000,1063.705811 
	C408.000000,1044.359009 408.000000,1024.929565 408.000000,1005.000000 
M536.979492,900.782471 
	C532.182922,889.687073 522.522827,886.377136 511.745819,886.120056 
	C493.441132,885.683472 475.118469,885.993896 456.803375,886.013245 
	C455.550262,886.014587 454.297363,886.205872 453.343628,886.284241 
	C453.343628,905.444397 453.343628,924.171509 453.343628,941.999878 
	C474.577118,941.999878 495.471832,942.346313 516.344238,941.814636 
	C523.796326,941.624817 530.761169,938.690247 535.079407,931.585632 
	C540.980957,921.876099 541.013367,911.889099 536.979492,900.782471 
z"/>
<path fill="#030304" opacity="1.000000" stroke="none" 
	d="
M757.526611,847.089233 
	C757.666992,848.093933 757.056702,849.024414 757.066895,849.948120 
	C757.199280,861.999817 757.419556,874.050598 757.798767,886.467529 
	C737.174988,886.833435 716.370178,886.833435 695.165771,886.833435 
	C695.165771,945.964722 695.165771,1004.702271 695.165771,1063.719360 
	C679.363953,1063.719360 663.958923,1063.719360 648.151611,1063.719360 
	C648.151611,1005.021118 648.151611,946.283569 648.151611,887.144775 
	C626.350342,887.144775 604.942810,887.144775 583.269287,887.144775 
	C583.269287,873.674438 583.269287,860.602722 583.269287,847.011963 
	C641.198364,847.011963 699.131409,847.011963 757.526611,847.089233 
z"/>
<path fill="#030304" opacity="1.000000" stroke="none" 
	d="
M246.001434,450.001282 
	C217.103287,431.062164 201.413284,404.676544 199.228439,370.024811 
	C206.922409,373.394806 214.403717,376.842468 222.016586,379.969940 
	C236.983109,386.118317 252.459549,390.112549 268.591675,392.153625 
	C285.151062,394.248810 301.285400,392.889862 316.943726,387.807861 
	C327.779083,384.291199 338.121368,379.152679 346.866211,371.556915 
	C353.166473,366.084503 359.132477,360.227264 363.939850,355.757538 
	C367.665771,358.772705 372.012268,362.000305 376.031067,365.594299 
	C390.538300,378.568054 407.110992,387.264801 426.307068,391.042725 
	C454.179443,396.528229 480.549591,390.494415 506.407593,380.828400 
	C514.631348,377.754211 522.487000,373.695190 530.552979,370.068024 
	C530.713013,403.141968 508.071381,446.991882 459.000000,461.015320 
	C459.000000,448.785248 459.360077,436.707825 458.816895,424.671143 
	C458.609283,420.069794 457.047211,415.172546 454.826508,411.107056 
	C451.873047,405.700043 446.407440,403.050598 440.196198,403.041443 
	C390.036560,402.967468 339.876648,403.044189 289.717010,402.959015 
	C280.741730,402.943787 271.508972,412.550354 271.859863,421.162994 
	C272.394714,434.291443 272.000000,447.457764 272.000000,461.277832 
	C262.646790,458.608551 254.048782,455.431244 246.001434,450.001282 
z"/>
<path fill="#030304" opacity="1.000000" stroke="none" 
	d="
M718.164429,1057.488770 
	C713.628113,1049.220459 717.487732,1040.824463 723.119385,1037.326660 
	C726.102051,1035.473999 735.342957,1034.960815 739.972229,1038.454224 
	C743.491028,1041.109497 746.158020,1049.401611 744.815857,1053.599121 
	C743.010315,1059.245728 737.052429,1063.659912 731.516357,1064.064087 
	C725.812744,1064.480347 721.861816,1061.728882 718.164429,1057.488770 
z"/>
<path fill="#FFFFFF" opacity="1.000000" stroke="none" 
	d="
M234.000000,950.121521 
	C235.119583,934.076599 237.258682,918.758301 245.999298,905.296875 
	C254.504456,892.198059 266.135773,883.664429 281.836670,880.953735 
	C296.364563,878.445618 309.773865,880.637268 322.315674,888.676147 
	C336.344604,897.668152 342.919434,911.429749 346.884644,926.676514 
	C349.908936,938.305359 350.672424,950.324097 349.964722,962.338745 
	C348.854980,981.179932 345.029938,999.351624 332.251587,1013.999756 
	C324.577789,1022.796387 314.497284,1028.194336 302.609619,1030.084717 
	C291.038849,1031.924683 280.115295,1030.847168 269.295502,1026.137695 
	C259.166168,1021.728760 251.660995,1014.642212 246.005707,1005.490417 
	C239.186966,994.456055 235.508453,982.364319 234.984848,969.345764 
	C234.733475,963.095947 234.332962,956.852112 234.000000,950.121521 
z"/>
<path fill="#FFFFFF" opacity="1.000000" stroke="none" 
	d="
M537.034912,901.181274 
	C541.013367,911.889099 540.980957,921.876099 535.079407,931.585632 
	C530.761169,938.690247 523.796326,941.624817 516.344238,941.814636 
	C495.471832,942.346313 474.577118,941.999878 453.343628,941.999878 
	C453.343628,924.171509 453.343628,905.444397 453.343628,886.284241 
	C454.297363,886.205872 455.550262,886.014587 456.803375,886.013245 
	C475.118469,885.993896 493.441132,885.683472 511.745819,886.120056 
	C522.522827,886.377136 532.182922,889.687073 537.034912,901.181274 
z"/>
</svg>