<svg version="1.1" id="Layer_1" xmlns="http://www.w3.org/2000/svg" xmlns:xlink="http://www.w3.org/1999/xlink" x="0px" y="0px"
	 width="100%" viewBox="0 0 354 472" enable-background="new 0 0 354 472" xml:space="preserve">
<path fill="#47704C" opacity="1.000000" stroke="none" 
	d="
M355.000000,5.000000 
	C355.000000,126.355980 355.000000,247.711960 354.531342,369.533966 
	C330.139648,370.000092 306.216644,369.995270 282.293610,370.008026 
	C279.969727,370.009277 277.506195,369.672943 275.372864,370.340912 
	C274.027649,370.762115 273.176453,372.760956 272.055603,374.338440 
	C271.708649,376.734619 271.409760,378.844513 270.767639,381.070496 
	C269.252502,381.478821 268.080597,381.770996 266.936584,382.051331 
	C266.964447,382.039429 266.942902,382.096100 266.877075,381.738403 
	C265.486206,379.558441 264.475555,377.343353 262.778839,375.985596 
	C257.060883,371.410065 250.159882,370.166992 243.063568,370.053986 
	C234.078064,369.910889 225.088730,369.993103 216.101074,370.004486 
	C209.111191,370.013336 202.117844,369.944153 195.133148,370.150452 
	C192.242966,370.235840 189.161057,370.736664 190.073105,375.511108 
	C189.968781,385.983429 189.901062,395.991272 189.530273,405.860535 
	C187.904388,403.727417 186.478378,401.792725 185.279312,399.726379 
	C182.377548,394.725769 181.159088,388.468781 174.604919,385.892639 
	C173.205765,384.536652 172.081802,383.325714 170.890106,381.757263 
	C169.635132,379.666809 168.773895,377.532837 167.210876,376.262177 
	C149.001846,361.459656 112.437737,363.834991 96.431618,386.012909 
	C92.184151,391.898132 87.876274,398.031891 89.071220,406.414978 
	C88.965431,407.523743 88.899384,408.263092 88.666931,409.178589 
	C88.370659,410.251709 88.240791,411.148651 88.073898,412.509949 
	C88.060577,419.633484 88.084274,426.292603 88.039803,433.185486 
	C88.258873,434.278625 88.546104,435.138092 88.894455,436.320923 
	C89.006378,437.080139 89.057190,437.515961 89.011536,438.278442 
	C88.525520,443.074860 89.295891,447.117615 93.090912,450.246399 
	C93.058907,450.457672 93.041718,450.884705 93.108833,451.237091 
	C94.482857,453.041321 95.789757,454.493164 97.068085,455.952820 
	C97.039497,455.960602 97.056931,455.903961 97.122162,456.255707 
	C98.490479,458.053284 99.793571,459.499115 101.067657,460.951477 
	C101.038658,460.957977 101.055878,460.901062 101.150993,461.241943 
	C102.868759,462.707611 104.491409,463.832397 106.322754,465.050720 
	C106.792587,465.328491 106.962769,465.575409 106.868164,466.211487 
	C104.810272,467.347656 102.939575,468.819641 101.039978,468.857941 
	C90.045288,469.079590 79.043564,468.921844 68.044708,468.982239 
	C63.842396,469.005310 61.971722,467.051086 62.015926,462.889832 
	C62.084957,456.391113 61.587559,449.853180 62.156113,443.404694 
	C62.537132,439.083160 63.625530,434.502625 65.649986,430.705841 
	C72.546562,417.771576 80.020180,405.145691 87.224648,392.374481 
	C89.269341,388.749908 91.505531,385.172516 93.022629,381.324585 
	C95.651733,374.656219 92.476898,370.173035 85.370468,370.033569 
	C80.872566,369.945282 76.368088,370.131134 71.872726,369.993134 
	C67.693802,369.864807 65.032120,371.626221 63.246922,375.419281 
	C58.920090,384.612549 54.407349,393.719086 49.889050,402.820648 
	C49.148819,404.311768 47.999233,405.599640 46.531044,407.712097 
	C44.973297,405.180786 43.840862,403.589691 42.962612,401.868927 
	C39.704945,395.486145 35.918697,389.284912 33.469856,382.598389 
	C29.843307,372.696106 23.767998,368.520599 13.056192,369.813873 
	C5.937232,370.673309 5.018587,369.156250 5.017556,361.924347 
	C5.000976,245.597397 5.000805,129.270462 5.019368,12.943510 
	C5.020505,5.815940 5.859232,5.033250 13.210217,5.016263 
	C29.542568,4.978522 45.875061,4.999539 62.207497,5.001064 
	C71.055786,5.001890 71.055786,5.006022 72.073898,13.507385 
	C72.060593,18.629999 72.084282,23.290869 72.039810,28.185467 
	C72.258881,29.278645 72.546112,30.138094 72.894455,31.320940 
	C73.006363,32.080132 73.057159,32.515926 73.013138,33.274391 
	C73.046837,35.224827 72.895393,36.934998 73.346626,38.467754 
	C78.557526,56.168583 87.597710,71.944405 98.071281,86.963486 
	C98.840240,88.066154 100.439705,88.589691 101.672958,89.378189 
	C101.692871,89.373909 101.704201,89.413033 101.718849,89.769669 
	C102.706123,91.215919 103.678749,92.305527 104.667374,93.391388 
	C104.683365,93.387634 104.704201,93.413033 104.718849,93.769669 
	C105.706123,95.215919 106.678749,96.305527 107.667374,97.391388 
	C107.683365,97.387634 107.704201,97.413033 107.718849,97.769669 
	C108.706123,99.215919 109.678749,100.305527 110.680664,101.378517 
	C110.709946,101.361900 110.737228,101.423462 110.695038,101.813881 
	C109.888191,104.493637 109.550606,107.070625 108.251221,108.999786 
	C106.611923,111.433624 103.917099,113.138184 102.156929,115.512650 
	C98.063026,121.035301 93.229744,126.329193 94.065491,134.372101 
	C93.957832,135.133194 93.895584,135.567810 93.666946,136.178604 
	C93.370659,137.251740 93.240776,138.148682 93.073929,139.489410 
	C93.057396,142.603073 93.077812,145.272949 93.061203,148.230255 
	C93.372910,152.574142 96.620087,151.906723 99.068008,151.938004 
	C119.511971,152.199280 139.957932,152.302048 160.402313,152.537445 
	C162.865646,152.565826 165.323135,153.099579 167.783340,153.399109 
	C168.008606,154.137970 168.233856,154.876831 168.459122,155.615692 
	C163.667099,158.920456 159.286621,163.309036 154.001709,165.315887 
	C140.949387,170.272278 127.336380,170.571182 113.832283,166.738571 
	C108.408897,165.199356 103.187004,162.962769 97.808449,161.247238 
	C95.468330,160.500854 92.465675,159.441986 93.069336,164.459549 
	C93.059303,166.228561 93.083641,167.590149 93.039818,169.185471 
	C93.258888,170.278656 93.546120,171.138123 93.894455,172.320984 
	C94.006363,173.080154 94.057152,173.515945 94.013161,174.268982 
	C94.049492,180.859848 96.028450,186.079636 102.402519,189.115051 
	C105.139786,191.808548 107.588737,194.344315 110.120453,197.219833 
	C111.587326,199.657578 112.971436,201.755554 114.384857,203.897980 
	C111.601585,205.143341 109.019348,206.132935 106.598122,207.424408 
	C103.623688,209.010941 100.780243,210.847534 102.067978,215.421722 
	C101.932503,216.939026 101.758591,218.080444 101.759392,219.221725 
	C101.769150,233.148331 101.804565,247.074905 101.533791,261.142059 
	C95.698059,265.079346 92.367706,270.012848 93.065491,277.372070 
	C92.957840,278.133179 92.895592,278.567780 92.666946,279.178589 
	C92.370674,280.251709 92.240807,281.148651 92.074112,282.464172 
	C92.060844,288.239075 92.084412,293.595398 92.039810,299.185486 
	C92.258873,300.278625 92.546112,301.138092 92.894455,302.320923 
	C93.006386,303.080139 93.057198,303.515961 93.013199,304.272522 
	C94.619125,310.030975 95.994347,315.601196 98.135101,320.859772 
	C99.560883,324.362030 99.367935,326.148224 95.672951,327.783020 
	C91.934067,329.437286 88.238777,331.537994 85.113602,334.148529 
	C80.612846,337.908112 77.045647,342.490448 78.073944,349.501312 
	C78.059326,353.620728 78.081673,357.284424 78.066544,361.235779 
	C78.535004,365.873108 82.052940,364.945557 84.597542,364.913391 
	C98.911652,364.732635 113.221664,364.138428 127.535469,364.042847 
	C151.160629,363.885040 174.788223,363.898621 198.413589,364.041595 
	C210.728241,364.116089 223.039078,364.689728 235.353943,364.907227 
	C243.348572,365.048401 251.353851,365.132080 259.339752,364.841034 
	C261.365326,364.767181 264.228729,363.707489 265.167145,362.164307 
	C268.287231,357.033478 263.805817,344.412354 258.329620,341.616028 
	C258.311890,341.619354 258.295898,341.587006 258.281250,341.230347 
	C257.293915,339.784119 256.321259,338.694489 255.333069,337.631714 
	C255.317551,337.658539 255.273117,337.615265 255.261902,337.242676 
	C253.794113,334.998260 252.701492,332.530273 250.807922,331.374237 
	C246.369003,328.664429 245.780914,325.652954 248.672867,321.562073 
	C249.432358,320.487732 250.008530,319.269196 250.566788,318.069397 
	C257.369812,303.448090 259.456360,288.596832 252.126877,273.545624 
	C251.069962,271.375275 248.666229,269.860718 246.618820,267.905762 
	C245.553818,266.884125 244.755768,265.999359 243.963196,264.638641 
	C243.973480,251.177658 243.993851,238.192657 243.977448,225.207672 
	C243.967300,217.170929 240.294693,211.251678 233.453583,207.174393 
	C232.266434,206.466873 231.177353,205.594818 228.677307,203.840408 
	C230.539780,202.796631 231.585815,202.265625 232.576660,201.646317 
	C240.959686,196.406418 246.284439,188.634399 250.183136,179.825333 
	C252.426834,174.755707 254.073502,169.487350 250.893631,164.044250 
	C249.069504,160.921814 246.892548,160.313599 243.391907,161.597076 
	C236.703613,164.049210 229.945526,166.666626 222.983154,167.943085 
	C207.467224,170.787720 192.480240,169.315811 178.939423,160.103943 
	C177.253281,158.956848 174.941925,158.728790 172.944550,158.061905 
	C172.968857,158.048920 172.941910,158.095779 172.920624,157.766907 
	C172.284210,152.996338 175.224106,152.535339 178.472794,152.527893 
	C190.592194,152.500137 202.712067,152.565094 214.830994,152.482483 
	C225.616409,152.408966 236.400970,152.195755 247.185593,152.024460 
	C251.399170,151.957550 253.154327,149.597839 252.901703,145.592072 
	C252.364944,137.081528 249.289917,129.444260 244.522186,122.486336 
	C243.758896,121.372398 242.131363,120.850662 240.931900,120.047256 
	C240.960449,120.039352 240.943054,120.096001 240.877823,119.744247 
	C239.509476,117.946671 238.206375,116.500839 236.931854,115.047272 
	C236.960449,115.039528 236.942963,115.096138 236.871765,114.735901 
	C236.233063,111.370811 234.410950,110.235466 231.360672,110.746429 
	C231.265717,110.704170 231.178162,110.515640 231.358505,110.144547 
	C232.383499,108.343651 233.173309,106.877983 234.081375,105.489662 
	C242.453110,92.690483 251.603745,80.324493 258.989532,66.981049 
	C264.813080,56.460056 269.053833,44.934593 272.871704,33.480003 
	C275.161926,26.608803 275.149384,19.023829 271.971802,11.977734 
	C269.134186,5.685449 269.527191,5.026261 276.612823,5.017478 
	C302.741852,4.985092 328.870941,5.001772 355.000000,5.000000 
z"/>
<path fill="#030304" opacity="1.000000" stroke="none" 
	d="
M93.833344,136.002426 
	C93.895584,135.567810 93.957832,135.133194 94.337311,134.143921 
	C98.229675,122.245728 106.011147,114.185783 115.559921,107.315666 
	C113.839546,105.213768 112.288383,103.318611 110.737228,101.423462 
	C110.737228,101.423462 110.709946,101.361900 110.514381,101.099030 
	C109.447273,99.695114 108.575737,98.554077 107.704201,97.413033 
	C107.704201,97.413033 107.683365,97.387634 107.501091,97.111893 
	C106.447273,95.695114 105.575737,94.554077 104.704201,93.413033 
	C104.704201,93.413033 104.683365,93.387634 104.501091,93.111893 
	C103.447273,91.695114 102.575737,90.554070 101.704201,89.413033 
	C101.704201,89.413033 101.692871,89.373909 101.490974,89.074127 
	C96.837082,81.447548 91.843391,74.388206 88.062172,66.730194 
	C82.615341,55.698868 78.049675,44.232452 73.107956,32.951721 
	C73.057159,32.515926 73.006363,32.080132 72.943817,30.989515 
	C72.657372,29.540377 72.382675,28.746058 72.107971,27.951738 
	C72.084282,23.290869 72.060593,18.629999 72.344070,13.282715 
	C73.804932,6.681964 78.494354,3.922983 83.000000,1.000000 
	C88.354927,1.000000 93.709862,1.000000 99.753906,1.308109 
	C124.124031,6.396475 138.859909,21.987240 148.687500,42.729309 
	C156.858353,59.974640 161.245178,78.420746 163.134583,97.446266 
	C163.256866,98.677559 164.783173,100.666634 165.793457,100.756172 
	C170.016647,101.130455 174.292221,100.913910 178.615829,100.913910 
	C180.238068,83.186722 183.850662,66.620071 190.025681,50.721241 
	C196.345535,34.449570 205.096298,19.636562 220.437225,10.306479 
	C227.061340,6.277816 234.779068,4.047338 242.000000,1.000001 
	C247.354935,1.000000 252.709854,1.000000 258.708679,1.298597 
	C267.418823,4.711874 269.961975,10.841729 270.127625,19.155258 
	C270.405731,33.109798 265.494049,45.624649 259.059021,57.235909 
	C249.427399,74.614975 238.310730,91.171036 227.686966,108.300888 
	C228.145096,108.591522 229.661636,109.553581 231.178162,110.515640 
	C231.178162,110.515640 231.265717,110.704170 231.559952,110.986542 
	C233.550446,112.544662 235.246704,113.820404 236.942963,115.096146 
	C236.942963,115.096138 236.960449,115.039528 237.080933,115.342171 
	C238.448624,117.128540 239.695831,118.612274 240.943054,120.096001 
	C240.943054,120.096001 240.960449,120.039352 241.093002,120.359268 
	C245.996384,128.892334 250.099258,137.293304 248.698654,147.837341 
	C246.730713,148.008606 244.699554,148.328598 242.666718,148.339630 
	C226.441055,148.427567 210.214737,148.546249 193.989273,148.485718 
	C160.358704,148.360229 126.728554,148.129990 93.098236,147.942825 
	C93.077812,145.272949 93.057396,142.603073 93.334076,139.278931 
	C93.698578,137.750580 93.765961,136.876511 93.833344,136.002426 
z"/>
<path fill="#030304" opacity="1.000000" stroke="none" 
	d="
M271.110901,380.954407 
	C271.409760,378.844513 271.708649,376.734619 272.517334,374.321045 
	C300.351410,374.011566 327.675690,374.005768 355.000000,374.000000 
	C355.000000,380.021149 355.000000,386.042297 354.531342,392.532135 
	C347.063477,393.000641 340.064301,392.996307 333.065094,393.001465 
	C326.012024,393.006683 326.003601,393.010803 326.001862,399.960663 
	C325.996460,421.790344 325.926819,443.620483 326.061676,465.449341 
	C326.086304,469.436096 325.005798,471.301544 320.708405,471.059845 
	C315.724792,470.779510 310.713745,470.991913 305.714630,470.979584 
	C303.067017,470.973083 302.232208,470.071716 302.270142,467.033478 
	C302.564301,443.451935 302.574524,419.866302 302.501648,396.282471 
	C302.498291,395.197510 300.888336,393.203430 299.982666,393.177673 
	C291.533417,392.937347 283.074554,393.035339 273.929504,393.035339 
	C276.471558,406.537170 273.589203,417.494843 261.147675,424.859650 
	C270.011383,429.834961 272.084534,437.540070 272.104614,446.561249 
	C272.120758,453.832458 270.052063,461.622162 275.769928,468.023987 
	C276.152100,468.451813 275.724243,469.603149 275.636719,470.998688 
	C269.400879,470.998688 263.243439,470.657288 257.143555,471.103424 
	C251.978943,471.481140 250.303467,468.942352 250.030304,464.542480 
	C249.640366,458.261993 249.259659,451.979218 249.013718,445.691986 
	C248.709808,437.923004 245.111557,434.166290 237.362564,434.029510 
	C230.865662,433.914764 224.352768,434.247406 217.870682,433.916595 
	C213.685730,433.702972 212.860733,435.463989 212.938446,439.161530 
	C213.130981,448.322540 212.899155,457.492004 213.045654,466.654724 
	C213.096176,469.815338 212.170990,471.211945 208.815079,471.044220 
	C204.493378,470.828217 200.130600,470.723633 195.825790,471.070709 
	C191.060516,471.454956 189.887604,469.442993 189.918594,464.981262 
	C190.055099,445.321686 189.889496,425.660034 189.833344,405.999115 
	C189.901062,395.991272 189.968781,385.983429 190.441986,375.319244 
	C192.629730,374.442169 194.411240,374.037170 196.194336,374.030029 
	C209.659042,373.976044 223.130692,374.260803 236.586914,373.918640 
	C247.616165,373.638214 257.954987,375.160645 266.942902,382.096100 
	C266.942902,382.096100 266.964447,382.039429 267.086914,382.347473 
	C268.444092,384.224731 269.678772,385.794006 270.913452,387.363251 
	C271.335144,387.173767 271.756866,386.984253 272.178558,386.794769 
	C271.822662,384.847992 271.466766,382.901184 271.110901,380.954407 
M222.559052,392.000000 
	C221.227509,392.000549 219.874390,392.155701 218.568390,391.973297 
	C214.262177,391.371918 212.554260,392.938110 212.916214,397.456848 
	C213.300369,402.253113 213.124100,407.107391 212.966644,411.928986 
	C212.870117,414.884521 213.851425,416.100006 216.949905,416.040466 
	C224.936127,415.887024 232.929871,416.114624 240.915634,415.949524 
	C247.300400,415.817505 251.464462,411.721405 251.977859,405.533417 
	C252.528809,398.893158 249.676880,394.144226 243.325302,393.181946 
	C236.819977,392.196381 230.142532,392.346832 222.559052,392.000000 
z"/>
<path fill="#47704C" opacity="1.000000" stroke="none" 
	d="
M189.530273,405.860535 
	C189.889496,425.660034 190.055099,445.321686 189.918594,464.981262 
	C189.887604,469.442993 191.060516,471.454956 195.825790,471.070709 
	C200.130600,470.723633 204.493378,470.828217 208.815079,471.044220 
	C212.170990,471.211945 213.096176,469.815338 213.045654,466.654724 
	C212.899155,457.492004 213.130981,448.322540 212.938446,439.161530 
	C212.860733,435.463989 213.685730,433.702972 217.870682,433.916595 
	C224.352768,434.247406 230.865662,433.914764 237.362564,434.029510 
	C245.111557,434.166290 248.709808,437.923004 249.013718,445.691986 
	C249.259659,451.979218 249.640366,458.261993 250.030304,464.542480 
	C250.303467,468.942352 251.978943,471.481140 257.143555,471.103424 
	C263.243439,470.657288 269.400879,470.998688 275.636719,470.998688 
	C275.724243,469.603149 276.152100,468.451813 275.769928,468.023987 
	C270.052063,461.622162 272.120758,453.832458 272.104614,446.561249 
	C272.084534,437.540070 270.011383,429.834961 261.147675,424.859650 
	C273.589203,417.494843 276.471558,406.537170 273.929504,393.035339 
	C283.074554,393.035339 291.533417,392.937347 299.982666,393.177673 
	C300.888336,393.203430 302.498291,395.197510 302.501648,396.282471 
	C302.574524,419.866302 302.564301,443.451935 302.270142,467.033478 
	C302.232208,470.071716 303.067017,470.973083 305.714630,470.979584 
	C310.713745,470.991913 315.724792,470.779510 320.708405,471.059845 
	C325.005798,471.301544 326.086304,469.436096 326.061676,465.449341 
	C325.926819,443.620483 325.996460,421.790344 326.001862,399.960663 
	C326.003601,393.010803 326.012024,393.006683 333.065094,393.001465 
	C340.064301,392.996307 347.063477,393.000641 354.531342,393.000427 
	C355.000000,419.625671 355.000000,446.251373 355.000000,473.000000 
	C286.979156,473.000000 218.958237,473.000000 150.686371,472.693604 
	C171.707916,468.365204 184.556793,449.276215 185.964569,429.139557 
	C187.051910,413.586060 184.690842,398.831268 174.880127,386.037720 
	C181.159088,388.468781 182.377548,394.725769 185.279312,399.726379 
	C186.478378,401.792725 187.904388,403.727417 189.530273,405.860535 
M336.037201,459.520905 
	C335.682648,460.252258 335.256927,460.958252 334.985748,461.719299 
	C333.780884,465.100983 334.601257,467.965302 337.694946,469.775757 
	C341.016785,471.719757 344.694214,472.051056 346.866302,468.384918 
	C348.086945,466.324615 348.897095,462.870178 347.983215,460.954468 
	C346.450256,457.740845 343.062317,456.073914 339.130829,457.485504 
	C338.218750,457.813049 337.427063,458.475830 336.037201,459.520905 
z"/>
<path fill="#030304" opacity="1.000000" stroke="none" 
	d="
M174.604919,385.892639 
	C184.690842,398.831268 187.051910,413.586060 185.964569,429.139557 
	C184.556793,449.276215 171.707916,468.365204 150.217712,472.693604 
	C141.645767,473.000000 133.291534,473.000000 124.250946,472.693573 
	C118.057060,470.219757 112.549538,468.052368 107.042007,465.885010 
	C106.962769,465.575409 106.792587,465.328491 106.160583,464.759277 
	C104.211761,463.216522 102.633812,462.058807 101.055870,460.901062 
	C101.055878,460.901062 101.038658,460.957977 100.918602,460.656555 
	C99.551338,458.871429 98.304131,457.387695 97.056931,455.903961 
	C97.056931,455.903961 97.039497,455.960602 96.912590,455.648499 
	C95.537697,453.852478 94.289711,452.368591 93.041718,450.884705 
	C93.041718,450.884705 93.058907,450.457672 93.284409,450.007568 
	C92.042603,445.688934 90.575310,441.820343 89.108002,437.951782 
	C89.057190,437.515961 89.006378,437.080139 88.943817,435.989502 
	C88.657364,434.540375 88.382668,433.746063 88.107971,432.951752 
	C88.084274,426.292603 88.060577,419.633484 88.334053,412.299500 
	C88.698601,410.750549 88.765976,409.876495 88.833344,409.002411 
	C88.899384,408.263092 88.965431,407.523743 89.348587,406.167725 
	C94.820541,384.438599 111.004349,372.352417 132.963028,371.037689 
	C146.892929,370.203613 159.775406,373.338989 170.957855,382.114777 
	C172.081802,383.325714 173.205765,384.536652 174.604919,385.892639 
M160.869827,405.839630 
	C160.351852,404.802124 159.840332,403.761322 159.314896,402.727631 
	C154.004929,392.281097 144.932709,389.214081 134.020996,390.029694 
	C124.855415,390.714752 117.895294,395.204407 114.271614,403.624084 
	C108.943474,416.004150 109.107018,428.827362 114.211372,441.151276 
	C118.510757,451.531738 127.415512,455.378540 138.302032,454.987671 
	C147.789520,454.647034 155.422043,450.812958 159.402191,441.945618 
	C164.545380,430.487213 164.130661,418.549286 160.869827,405.839630 
z"/>
<path fill="#47704C" opacity="1.000000" stroke="none" 
	d="
M106.868164,466.211456 
	C112.549538,468.052368 118.057060,470.219757 123.782288,472.693573 
	C83.083588,473.000000 42.167175,473.000000 1.000000,473.000000 
	C1.000000,442.646240 1.000000,412.291779 1.355752,381.496948 
	C3.184527,382.467743 5.041802,383.644470 6.068894,385.327759 
	C13.325000,397.219849 20.272911,409.301056 27.598167,421.149475 
	C32.646111,429.314362 36.407063,437.538513 35.140663,447.611572 
	C34.377857,453.678986 35.141369,459.925171 34.954662,466.083038 
	C34.843159,469.760681 36.247475,471.207611 39.922272,471.040161 
	C44.244400,470.843231 48.594818,470.793732 52.909908,471.057526 
	C56.725464,471.290771 58.207916,470.129181 58.084312,466.060364 
	C57.806252,456.906799 57.901306,447.737030 58.072948,438.578186 
	C58.114700,436.350281 58.572815,433.880707 59.633743,431.961273 
	C67.307732,418.077850 75.208549,404.320068 82.987228,390.494171 
	C85.910988,385.297455 88.701111,380.025543 91.973274,374.014252 
	C83.499573,374.014252 76.347511,373.899261 69.205658,374.117798 
	C67.884285,374.158295 66.007698,375.230042 65.407410,376.365234 
	C62.703484,381.478455 60.431618,386.817657 57.882141,392.015625 
	C54.357914,399.200958 50.724300,406.332672 46.695316,414.369446 
	C40.425980,401.803101 34.576454,390.293396 28.954586,378.673523 
	C27.348551,375.353973 25.555862,373.625549 21.482254,373.883362 
	C14.679618,374.313812 7.829898,374.000305 1.000000,374.000000 
	C1.000000,249.786285 1.000000,125.572571 1.000000,1.000000 
	C28.019835,1.000000 55.041260,1.000000 82.531342,1.000000 
	C78.494354,3.922983 73.804932,6.681964 72.381073,12.820971 
	C71.055786,5.006022 71.055786,5.001890 62.207497,5.001064 
	C45.875061,4.999539 29.542568,4.978522 13.210217,5.016263 
	C5.859232,5.033250 5.020505,5.815940 5.019368,12.943510 
	C5.000805,129.270462 5.000976,245.597397 5.017556,361.924347 
	C5.018587,369.156250 5.937232,370.673309 13.056192,369.813873 
	C23.767998,368.520599 29.843307,372.696106 33.469856,382.598389 
	C35.918697,389.284912 39.704945,395.486145 42.962612,401.868927 
	C43.840862,403.589691 44.973297,405.180786 46.531044,407.712097 
	C47.999233,405.599640 49.148819,404.311768 49.889050,402.820648 
	C54.407349,393.719086 58.920090,384.612549 63.246922,375.419281 
	C65.032120,371.626221 67.693802,369.864807 71.872726,369.993134 
	C76.368088,370.131134 80.872566,369.945282 85.370468,370.033569 
	C92.476898,370.173035 95.651733,374.656219 93.022629,381.324585 
	C91.505531,385.172516 89.269341,388.749908 87.224648,392.374481 
	C80.020180,405.145691 72.546562,417.771576 65.649986,430.705841 
	C63.625530,434.502625 62.537132,439.083160 62.156113,443.404694 
	C61.587559,449.853180 62.084957,456.391113 62.015926,462.889832 
	C61.971722,467.051086 63.842396,469.005310 68.044708,468.982239 
	C79.043564,468.921844 90.045288,469.079590 101.039978,468.857941 
	C102.939575,468.819641 104.810272,467.347656 106.868164,466.211456 
z"/>
<path fill="#47704C" opacity="1.000000" stroke="none" 
	d="
M241.531342,1.000001 
	C234.779068,4.047338 227.061340,6.277816 220.437225,10.306479 
	C205.096298,19.636562 196.345535,34.449570 190.025681,50.721241 
	C183.850662,66.620071 180.238068,83.186722 178.615829,100.913910 
	C174.292221,100.913910 170.016647,101.130455 165.793457,100.756172 
	C164.783173,100.666634 163.256866,98.677559 163.134583,97.446266 
	C161.245178,78.420746 156.858353,59.974640 148.687500,42.729309 
	C138.859909,21.987240 124.124031,6.396475 100.221512,1.308109 
	C147.020889,1.000000 194.041794,1.000000 241.531342,1.000001 
z"/>
<path fill="#030304" opacity="1.000000" stroke="none" 
	d="
M1.000000,374.437500 
	C7.829898,374.000305 14.679618,374.313812 21.482254,373.883362 
	C25.555862,373.625549 27.348551,375.353973 28.954586,378.673523 
	C34.576454,390.293396 40.425980,401.803101 46.695316,414.369446 
	C50.724300,406.332672 54.357914,399.200958 57.882141,392.015625 
	C60.431618,386.817657 62.703484,381.478455 65.407410,376.365234 
	C66.007698,375.230042 67.884285,374.158295 69.205658,374.117798 
	C76.347511,373.899261 83.499573,374.014252 91.973274,374.014252 
	C88.701111,380.025543 85.910988,385.297455 82.987228,390.494171 
	C75.208549,404.320068 67.307732,418.077850 59.633743,431.961273 
	C58.572815,433.880707 58.114700,436.350281 58.072948,438.578186 
	C57.901306,447.737030 57.806252,456.906799 58.084312,466.060364 
	C58.207916,470.129181 56.725464,471.290771 52.909908,471.057526 
	C48.594818,470.793732 44.244400,470.843231 39.922272,471.040161 
	C36.247475,471.207611 34.843159,469.760681 34.954662,466.083038 
	C35.141369,459.925171 34.377857,453.678986 35.140663,447.611572 
	C36.407063,437.538513 32.646111,429.314362 27.598167,421.149475 
	C20.272911,409.301056 13.325000,397.219849 6.068894,385.327759 
	C5.041802,383.644470 3.184527,382.467743 1.355752,381.028259 
	C1.000000,378.958344 1.000000,376.916656 1.000000,374.437500 
z"/>
<path fill="#47704C" opacity="1.000000" stroke="none" 
	d="
M231.358505,110.144547 
	C229.661636,109.553581 228.145096,108.591522 227.686966,108.300888 
	C238.310730,91.171036 249.427399,74.614975 259.059021,57.235909 
	C265.494049,45.624649 270.405731,33.109798 270.127625,19.155258 
	C269.961975,10.841729 267.418823,4.711874 259.176270,1.298597 
	C290.000000,1.000000 321.000122,1.034365 351.999786,0.935252 
	C354.500183,0.927258 355.498810,1.501198 355.000000,4.500000 
	C328.870941,5.001772 302.741852,4.985092 276.612823,5.017478 
	C269.527191,5.026261 269.134186,5.685449 271.971802,11.977734 
	C275.149384,19.023829 275.161926,26.608803 272.871704,33.480003 
	C269.053833,44.934593 264.813080,56.460056 258.989532,66.981049 
	C251.603745,80.324493 242.453110,92.690483 234.081375,105.489662 
	C233.173309,106.877983 232.383499,108.343651 231.358505,110.144547 
z"/>
<path fill="#47704C" opacity="1.000000" stroke="none" 
	d="
M355.000000,373.600006 
	C327.675690,374.005768 300.351410,374.011566 272.565369,374.034729 
	C273.176453,372.760956 274.027649,370.762115 275.372864,370.340912 
	C277.506195,369.672943 279.969727,370.009277 282.293610,370.008026 
	C306.216644,369.995270 330.139648,370.000092 354.531342,370.000000 
	C355.000000,371.066681 355.000000,372.133331 355.000000,373.600006 
z"/>
<path fill="#030304" opacity="1.000000" stroke="none" 
	d="
M101.833328,261.001495 
	C101.804565,247.074905 101.769150,233.148331 101.759392,219.221725 
	C101.758591,218.080444 101.932503,216.939026 102.341026,215.216187 
	C105.597664,212.764297 108.465164,209.431564 111.492188,209.279770 
	C123.787491,208.663147 136.135330,208.846054 148.456497,209.095306 
	C154.832581,209.224304 159.015121,213.752441 157.732269,219.924759 
	C156.989883,223.496780 153.681870,226.535568 151.550858,229.780319 
	C157.168198,232.884583 159.219818,236.436539 157.862106,241.981247 
	C156.696121,246.742950 152.619217,248.985748 145.094177,248.998764 
	C142.056381,249.004013 139.018600,248.999634 135.980804,248.999634 
	C140.133743,250.005997 144.270554,249.945679 148.404846,250.021606 
	C153.339508,250.112244 157.292923,253.373978 157.948898,257.756165 
	C158.710464,262.843781 155.832947,267.608124 150.879105,268.832245 
	C148.021347,269.538452 145.019958,269.836456 142.068878,269.952118 
	C137.483215,270.131866 132.885315,269.999603 128.025970,269.999603 
	C128.025970,281.621033 127.900406,292.606018 128.085724,303.585785 
	C128.163467,308.191620 131.394409,310.951294 136.363022,310.964447 
	C159.516357,311.025757 182.670090,311.034241 205.823334,310.956421 
	C210.910309,310.939331 213.886917,307.956970 213.954163,302.900421 
	C214.078217,293.574066 213.895050,284.243378 214.041275,274.917664 
	C214.090485,271.779266 212.807922,270.882538 209.891647,270.967316 
	C204.898956,271.112427 199.892273,271.150696 194.902985,270.949066 
	C187.790848,270.661591 183.789078,266.610382 184.008545,260.269806 
	C184.208588,254.489822 188.308578,251.088974 195.250153,251.010849 
	C199.209839,250.966278 203.170456,251.002777 207.767120,251.002777 
	C206.981873,250.398346 206.851700,250.210495 206.718018,250.207962 
	C202.396027,250.126038 198.073120,250.086746 193.751541,249.989182 
	C187.833450,249.855576 183.968536,246.031281 184.009644,240.402435 
	C184.050613,234.791595 187.917450,231.098785 193.946686,231.015259 
	C198.288086,230.955109 202.630981,231.003540 206.973221,231.003540 
	C202.997528,229.998932 199.026245,230.013550 195.055084,229.995667 
	C188.299805,229.965240 184.600174,226.438782 183.897842,220.679871 
	C183.141861,214.481033 189.547531,210.142960 194.534698,210.074402 
	C206.192398,209.914108 217.858505,209.825638 229.511948,210.100433 
	C236.284241,210.260117 239.985733,214.551056 239.994781,221.247742 
	C240.010773,233.074341 240.126709,244.903107 239.925873,256.726288 
	C239.863327,260.408905 240.714813,263.226624 243.957718,265.114624 
	C244.755768,265.999359 245.553818,266.884125 246.785507,268.222290 
	C258.788544,290.945740 250.707581,310.574036 238.891907,329.117249 
	C244.585556,332.070923 249.929337,334.843079 255.273117,337.615265 
	C255.273117,337.615265 255.317551,337.658539 255.499374,337.911194 
	C256.552765,339.304901 257.424347,340.445953 258.295898,341.587006 
	C258.295898,341.587006 258.311890,341.619354 258.519226,341.935425 
	C261.678528,347.997437 262.859985,353.995239 261.480011,360.628662 
	C260.045715,360.760223 258.749115,361.013550 257.460999,360.975922 
	C247.563965,360.686646 237.670502,360.259857 227.772339,360.030487 
	C210.438583,359.628784 193.103271,359.172882 175.766632,359.068146 
	C166.827393,359.014130 157.886215,359.835876 148.941742,359.959290 
	C136.722290,360.127899 124.497307,359.887970 112.277611,360.046936 
	C100.884430,360.195129 89.495056,360.636078 78.104012,360.948151 
	C78.081673,357.284424 78.059326,353.620728 78.345177,349.274414 
	C82.541054,335.268768 93.538780,331.413269 104.877419,329.383820 
	C100.796692,320.565948 96.952354,312.258881 93.108009,303.951782 
	C93.057198,303.515961 93.006386,303.080139 92.943817,301.989502 
	C92.657372,300.540375 92.382668,299.746063 92.107971,298.951752 
	C92.084412,293.595398 92.060844,288.239075 92.334244,282.253662 
	C92.698593,280.750549 92.765968,279.876495 92.833344,279.002411 
	C92.895592,278.567780 92.957840,278.133179 93.337158,277.144257 
	C95.828484,272.831329 98.056717,269.102356 100.147797,265.298004 
	C100.882721,263.960968 101.281219,262.439026 101.833328,261.001495 
z"/>
<path fill="#47704C" opacity="1.000000" stroke="none" 
	d="
M243.963196,264.638641 
	C240.714813,263.226624 239.863327,260.408905 239.925873,256.726288 
	C240.126709,244.903107 240.010773,233.074341 239.994781,221.247742 
	C239.985733,214.551056 236.284241,210.260117 229.511948,210.100433 
	C217.858505,209.825638 206.192398,209.914108 194.534698,210.074402 
	C189.547531,210.142960 183.141861,214.481033 183.897842,220.679871 
	C184.600174,226.438782 188.299805,229.965240 195.055084,229.995667 
	C199.026245,230.013550 202.997528,229.998932 206.973221,231.003540 
	C202.630981,231.003540 198.288086,230.955109 193.946686,231.015259 
	C187.917450,231.098785 184.050613,234.791595 184.009644,240.402435 
	C183.968536,246.031281 187.833450,249.855576 193.751541,249.989182 
	C198.073120,250.086746 202.396027,250.126038 206.718018,250.207962 
	C206.851700,250.210495 206.981873,250.398346 207.767120,251.002777 
	C203.170456,251.002777 199.209839,250.966278 195.250153,251.010849 
	C188.308578,251.088974 184.208588,254.489822 184.008545,260.269806 
	C183.789078,266.610382 187.790848,270.661591 194.902985,270.949066 
	C199.892273,271.150696 204.898956,271.112427 209.891647,270.967316 
	C212.807922,270.882538 214.090485,271.779266 214.041275,274.917664 
	C213.895050,284.243378 214.078217,293.574066 213.954163,302.900421 
	C213.886917,307.956970 210.910309,310.939331 205.823334,310.956421 
	C182.670090,311.034241 159.516357,311.025757 136.363022,310.964447 
	C131.394409,310.951294 128.163467,308.191620 128.085724,303.585785 
	C127.900406,292.606018 128.025970,281.621033 128.025970,269.999603 
	C132.885315,269.999603 137.483215,270.131866 142.068878,269.952118 
	C145.019958,269.836456 148.021347,269.538452 150.879105,268.832245 
	C155.832947,267.608124 158.710464,262.843781 157.948898,257.756165 
	C157.292923,253.373978 153.339508,250.112244 148.404846,250.021606 
	C144.270554,249.945679 140.133743,250.005997 135.980804,248.999634 
	C139.018600,248.999634 142.056381,249.004013 145.094177,248.998764 
	C152.619217,248.985748 156.696121,246.742950 157.862106,241.981247 
	C159.219818,236.436539 157.168198,232.884583 151.550858,229.780319 
	C153.681870,226.535568 156.989883,223.496780 157.732269,219.924759 
	C159.015121,213.752441 154.832581,209.224304 148.456497,209.095306 
	C136.135330,208.846054 123.787491,208.663147 111.492188,209.279770 
	C108.465164,209.431564 105.597664,212.764297 102.383774,214.840240 
	C100.780243,210.847534 103.623688,209.010941 106.598122,207.424408 
	C109.019348,206.132935 111.601585,205.143341 114.384857,203.897980 
	C112.971436,201.755554 111.587326,199.657578 110.470711,197.291351 
	C116.174171,199.795746 121.610130,202.568375 127.233261,205.436462 
	C127.694321,203.900497 127.868790,203.584854 127.872482,203.267197 
	C127.928589,198.441360 127.961960,193.615280 128.001404,188.789246 
	C128.058487,181.803665 130.558655,179.066299 137.545517,179.039124 
	C159.852188,178.952362 182.159607,178.951752 204.466278,179.039612 
	C211.446915,179.067093 213.957428,181.807846 213.993576,188.801056 
	C214.019897,193.889908 213.998718,198.978989 213.998718,204.074081 
	C230.793701,203.275787 251.470673,179.729675 247.969086,164.060608 
	C246.396225,164.502884 244.722046,164.713486 243.290222,165.417191 
	C231.286758,171.316452 218.647888,173.707657 205.292984,173.047836 
	C192.409805,172.411316 181.762253,167.279160 172.920258,158.074890 
	C174.941925,158.728790 177.253281,158.956848 178.939423,160.103943 
	C192.480240,169.315811 207.467224,170.787720 222.983154,167.943085 
	C229.945526,166.666626 236.703613,164.049210 243.391907,161.597076 
	C246.892548,160.313599 249.069504,160.921814 250.893631,164.044250 
	C254.073502,169.487350 252.426834,174.755707 250.183136,179.825333 
	C246.284439,188.634399 240.959686,196.406418 232.576660,201.646317 
	C231.585815,202.265625 230.539780,202.796631 228.677307,203.840408 
	C231.177353,205.594818 232.266434,206.466873 233.453583,207.174393 
	C240.294693,211.251678 243.967300,217.170929 243.977448,225.207672 
	C243.993851,238.192657 243.973480,251.177658 243.963196,264.638641 
z"/>
<path fill="#030304" opacity="1.000000" stroke="none" 
	d="
M172.944550,158.061905 
	C181.762253,167.279160 192.409805,172.411316 205.292984,173.047836 
	C218.647888,173.707657 231.286758,171.316452 243.290222,165.417191 
	C244.722046,164.713486 246.396225,164.502884 247.969086,164.060608 
	C251.470673,179.729675 230.793701,203.275787 213.998718,204.074081 
	C213.998718,198.978989 214.019897,193.889908 213.993576,188.801056 
	C213.957428,181.807846 211.446915,179.067093 204.466278,179.039612 
	C182.159607,178.951752 159.852188,178.952362 137.545517,179.039124 
	C130.558655,179.066299 128.058487,181.803665 128.001404,188.789246 
	C127.961960,193.615280 127.928589,198.441360 127.872482,203.267197 
	C127.868790,203.584854 127.694321,203.900497 127.233261,205.436462 
	C121.610130,202.568375 116.174171,199.795746 110.387955,196.951599 
	C107.588737,194.344315 105.139786,191.808548 102.241325,188.806549 
	C99.230522,183.544113 96.669235,178.747925 94.107941,173.951721 
	C94.057152,173.515945 94.006363,173.080154 93.943825,171.989563 
	C93.657372,170.540405 93.382675,169.746078 93.107979,168.951752 
	C93.083641,167.590149 93.059303,166.228561 93.451126,164.451385 
	C100.394730,166.261505 106.813324,168.906509 113.469940,170.634644 
	C133.798721,175.912186 152.756592,174.158142 168.814026,158.842545 
	C169.658829,158.036758 171.542099,158.319687 172.941910,158.095779 
	C172.941910,158.095779 172.968857,158.048920 172.944550,158.061905 
z"/>
<path fill="#47704C" opacity="1.000000" stroke="none" 
	d="
M172.920624,157.766907 
	C171.542099,158.319687 169.658829,158.036758 168.814026,158.842545 
	C152.756592,174.158142 133.798721,175.912186 113.469940,170.634644 
	C106.813324,168.906509 100.394730,166.261505 93.485489,164.043976 
	C92.465675,159.441986 95.468330,160.500854 97.808449,161.247238 
	C103.187004,162.962769 108.408897,165.199356 113.832283,166.738571 
	C127.336380,170.571182 140.949387,170.272278 154.001709,165.315887 
	C159.286621,163.309036 163.667099,158.920456 168.459122,155.615692 
	C168.233856,154.876831 168.008606,154.137970 167.783340,153.399109 
	C165.323135,153.099579 162.865646,152.565826 160.402313,152.537445 
	C139.957932,152.302048 119.511971,152.199280 99.068008,151.938004 
	C96.620087,151.906723 93.372910,152.574142 93.061203,148.230255 
	C126.728554,148.129990 160.358704,148.360229 193.989273,148.485718 
	C210.214737,148.546249 226.441055,148.427567 242.666718,148.339630 
	C244.699554,148.328598 246.730713,148.008606 248.698654,147.837341 
	C250.099258,137.293304 245.996384,128.892334 241.064453,120.367172 
	C242.131363,120.850662 243.758896,121.372398 244.522186,122.486336 
	C249.289917,129.444260 252.364944,137.081528 252.901703,145.592072 
	C253.154327,149.597839 251.399170,151.957550 247.185593,152.024460 
	C236.400970,152.195755 225.616409,152.408966 214.830994,152.482483 
	C202.712067,152.565094 190.592194,152.500137 178.472794,152.527893 
	C175.224106,152.535339 172.284210,152.996338 172.920624,157.766907 
z"/>
<path fill="#47704C" opacity="1.000000" stroke="none" 
	d="
M78.066544,361.235779 
	C89.495056,360.636078 100.884430,360.195129 112.277611,360.046936 
	C124.497307,359.887970 136.722290,360.127899 148.941742,359.959290 
	C157.886215,359.835876 166.827393,359.014130 175.766632,359.068146 
	C193.103271,359.172882 210.438583,359.628784 227.772339,360.030487 
	C237.670502,360.259857 247.563965,360.686646 257.460999,360.975922 
	C258.749115,361.013550 260.045715,360.760223 261.480011,360.628662 
	C262.859985,353.995239 261.678528,347.997437 258.536987,341.932098 
	C263.805817,344.412354 268.287231,357.033478 265.167145,362.164307 
	C264.228729,363.707489 261.365326,364.767181 259.339752,364.841034 
	C251.353851,365.132080 243.348572,365.048401 235.353943,364.907227 
	C223.039078,364.689728 210.728241,364.116089 198.413589,364.041595 
	C174.788223,363.898621 151.160629,363.885040 127.535469,364.042847 
	C113.221664,364.138428 98.911652,364.732635 84.597542,364.913391 
	C82.052940,364.945557 78.535004,365.873108 78.066544,361.235779 
z"/>
<path fill="#47704C" opacity="1.000000" stroke="none" 
	d="
M170.890121,381.757263 
	C159.775406,373.338989 146.892929,370.203613 132.963028,371.037689 
	C111.004349,372.352417 94.820541,384.438599 89.388336,405.798279 
	C87.876274,398.031891 92.184151,391.898132 96.431618,386.012909 
	C112.437737,363.834991 149.001846,361.459656 167.210876,376.262177 
	C168.773895,377.532837 169.635132,379.666809 170.890121,381.757263 
z"/>
<path fill="#47704C" opacity="1.000000" stroke="none" 
	d="
M255.261902,337.242676 
	C249.929337,334.843079 244.585556,332.070923 238.891907,329.117249 
	C250.707581,310.574036 258.788544,290.945740 247.052444,268.359192 
	C248.666229,269.860718 251.069962,271.375275 252.126877,273.545624 
	C259.456360,288.596832 257.369812,303.448090 250.566788,318.069397 
	C250.008530,319.269196 249.432358,320.487732 248.672867,321.562073 
	C245.780914,325.652954 246.369003,328.664429 250.807922,331.374237 
	C252.701492,332.530273 253.794113,334.998260 255.261902,337.242676 
z"/>
<path fill="#47704C" opacity="1.000000" stroke="none" 
	d="
M266.877075,381.738403 
	C257.954987,375.160645 247.616165,373.638214 236.586914,373.918640 
	C223.130692,374.260803 209.659042,373.976044 196.194336,374.030029 
	C194.411240,374.037170 192.629730,374.442169 190.478607,374.854797 
	C189.161057,370.736664 192.242966,370.235840 195.133148,370.150452 
	C202.117844,369.944153 209.111191,370.013336 216.101074,370.004486 
	C225.088730,369.993103 234.078064,369.910889 243.063568,370.053986 
	C250.159882,370.166992 257.060883,371.410065 262.778839,375.985596 
	C264.475555,377.343353 265.486206,379.558441 266.877075,381.738403 
z"/>
<path fill="#47704C" opacity="1.000000" stroke="none" 
	d="
M93.013199,304.272522 
	C96.952354,312.258881 100.796692,320.565948 104.877419,329.383820 
	C93.538780,331.413269 82.541054,335.268768 78.382141,348.818726 
	C77.045647,342.490448 80.612846,337.908112 85.113602,334.148529 
	C88.238777,331.537994 91.934067,329.437286 95.672951,327.783020 
	C99.367935,326.148224 99.560883,324.362030 98.135101,320.859772 
	C95.994347,315.601196 94.619125,310.030975 93.013199,304.272522 
z"/>
<path fill="#47704C" opacity="1.000000" stroke="none" 
	d="
M73.013145,33.274391 
	C78.049675,44.232452 82.615341,55.698868 88.062172,66.730194 
	C91.843391,74.388206 96.837082,81.447548 101.471069,89.078415 
	C100.439705,88.589691 98.840240,88.066154 98.071281,86.963486 
	C87.597710,71.944405 78.557526,56.168583 73.346626,38.467754 
	C72.895393,36.934998 73.046837,35.224827 73.013145,33.274391 
z"/>
<path fill="#47704C" opacity="1.000000" stroke="none" 
	d="
M110.695038,101.813881 
	C112.288383,103.318611 113.839546,105.213768 115.559921,107.315666 
	C106.011147,114.185783 98.229675,122.245728 94.382721,133.817444 
	C93.229744,126.329193 98.063026,121.035301 102.156929,115.512650 
	C103.917099,113.138184 106.611923,111.433624 108.251221,108.999786 
	C109.550606,107.070625 109.888191,104.493637 110.695038,101.813881 
z"/>
<path fill="#47704C" opacity="1.000000" stroke="none" 
	d="
M101.533798,261.142059 
	C101.281219,262.439026 100.882721,263.960968 100.147797,265.298004 
	C98.056717,269.102356 95.828484,272.831329 93.382568,276.817810 
	C92.367706,270.012848 95.698059,265.079346 101.533798,261.142059 
z"/>
<path fill="#47704C" opacity="1.000000" stroke="none" 
	d="
M94.013161,174.268982 
	C96.669235,178.747925 99.230522,183.544113 101.953011,188.648804 
	C96.028450,186.079636 94.049492,180.859848 94.013161,174.268982 
z"/>
<path fill="#47704C" opacity="1.000000" stroke="none" 
	d="
M89.011536,438.278442 
	C90.575310,441.820343 92.042603,445.688934 93.316414,449.796295 
	C89.295891,447.117615 88.525520,443.074860 89.011536,438.278442 
z"/>
<path fill="#47704C" opacity="1.000000" stroke="none" 
	d="
M270.767639,381.070496 
	C271.466766,382.901184 271.822662,384.847992 272.178558,386.794769 
	C271.756866,386.984253 271.335144,387.173767 270.913452,387.363251 
	C269.678772,385.794006 268.444092,384.224731 267.059052,382.359344 
	C268.080597,381.770996 269.252502,381.478821 270.767639,381.070496 
z"/>
<path fill="#47704C" opacity="1.000000" stroke="none" 
	d="
M236.871765,114.735901 
	C235.246704,113.820404 233.550446,112.544662 231.654907,111.028809 
	C234.410950,110.235466 236.233063,111.370811 236.871765,114.735901 
z"/>
<path fill="#47704C" opacity="1.000000" stroke="none" 
	d="
M101.150986,461.241943 
	C102.633812,462.058807 104.211761,463.216522 105.951881,464.665741 
	C104.491409,463.832397 102.868759,462.707611 101.150986,461.241943 
z"/>
<path fill="#47704C" opacity="1.000000" stroke="none" 
	d="
M93.108841,451.237091 
	C94.289711,452.368591 95.537697,453.852478 96.941177,455.640686 
	C95.789757,454.493164 94.482857,453.041321 93.108841,451.237091 
z"/>
<path fill="#47704C" opacity="1.000000" stroke="none" 
	d="
M240.877823,119.744247 
	C239.695831,118.612274 238.448624,117.128540 237.052338,115.349915 
	C238.206375,116.500839 239.509476,117.946671 240.877823,119.744247 
z"/>
<path fill="#47704C" opacity="1.000000" stroke="none" 
	d="
M97.122154,456.255707 
	C98.304131,457.387695 99.551338,458.871429 100.947601,460.650055 
	C99.793571,459.499115 98.490479,458.053284 97.122154,456.255707 
z"/>
<path fill="#47704C" opacity="1.000000" stroke="none" 
	d="
M107.718849,97.769669 
	C108.575737,98.554077 109.447273,99.695114 110.485092,101.115646 
	C109.678749,100.305527 108.706123,99.215919 107.718849,97.769669 
z"/>
<path fill="#47704C" opacity="1.000000" stroke="none" 
	d="
M101.718849,89.769669 
	C102.575737,90.554070 103.447273,91.695114 104.485092,93.115646 
	C103.678749,92.305527 102.706123,91.215919 101.718849,89.769669 
z"/>
<path fill="#47704C" opacity="1.000000" stroke="none" 
	d="
M104.718849,93.769669 
	C105.575737,94.554077 106.447273,95.695114 107.485092,97.115646 
	C106.678749,96.305527 105.706123,95.215919 104.718849,93.769669 
z"/>
<path fill="#47704C" opacity="1.000000" stroke="none" 
	d="
M258.281250,341.230347 
	C257.424347,340.445953 256.552765,339.304901 255.514893,337.884338 
	C256.321259,338.694489 257.293915,339.784119 258.281250,341.230347 
z"/>
<path fill="#47704C" opacity="1.000000" stroke="none" 
	d="
M93.666946,136.178604 
	C93.765961,136.876511 93.698578,137.750580 93.371040,138.835144 
	C93.240776,138.148682 93.370659,137.251740 93.666946,136.178604 
z"/>
<path fill="#47704C" opacity="1.000000" stroke="none" 
	d="
M92.666946,279.178589 
	C92.765968,279.876495 92.698593,280.750549 92.371078,281.835114 
	C92.240807,281.148651 92.370674,280.251709 92.666946,279.178589 
z"/>
<path fill="#47704C" opacity="1.000000" stroke="none" 
	d="
M72.039810,28.185467 
	C72.382675,28.746058 72.657372,29.540377 72.882706,30.666119 
	C72.546112,30.138094 72.258881,29.278645 72.039810,28.185467 
z"/>
<path fill="#47704C" opacity="1.000000" stroke="none" 
	d="
M88.666939,409.178589 
	C88.765976,409.876495 88.698601,410.750549 88.371078,411.835114 
	C88.240791,411.148651 88.370659,410.251709 88.666939,409.178589 
z"/>
<path fill="#47704C" opacity="1.000000" stroke="none" 
	d="
M88.039803,433.185486 
	C88.382668,433.746063 88.657364,434.540375 88.882706,435.666107 
	C88.546104,435.138092 88.258873,434.278625 88.039803,433.185486 
z"/>
<path fill="#47704C" opacity="1.000000" stroke="none" 
	d="
M93.039818,169.185471 
	C93.382675,169.746078 93.657372,170.540405 93.882706,171.666168 
	C93.546120,171.138123 93.258888,170.278656 93.039818,169.185471 
z"/>
<path fill="#47704C" opacity="1.000000" stroke="none" 
	d="
M92.039810,299.185486 
	C92.382668,299.746063 92.657372,300.540375 92.882706,301.666107 
	C92.546112,301.138092 92.258873,300.278625 92.039810,299.185486 
z"/>
<path fill="#47704C" opacity="1.000000" stroke="none" 
	d="
M223.049744,392.000000 
	C230.142532,392.346832 236.819977,392.196381 243.325302,393.181946 
	C249.676880,394.144226 252.528809,398.893158 251.977859,405.533417 
	C251.464462,411.721405 247.300400,415.817505 240.915634,415.949524 
	C232.929871,416.114624 224.936127,415.887024 216.949905,416.040466 
	C213.851425,416.100006 212.870117,414.884521 212.966644,411.928986 
	C213.124100,407.107391 213.300369,402.253113 212.916214,397.456848 
	C212.554260,392.938110 214.262177,391.371918 218.568390,391.973297 
	C219.874390,392.155701 221.227509,392.000549 223.049744,392.000000 
z"/>
<path fill="#030304" opacity="1.000000" stroke="none" 
	d="
M336.308594,459.252625 
	C337.427063,458.475830 338.218750,457.813049 339.130829,457.485504 
	C343.062317,456.073914 346.450256,457.740845 347.983215,460.954468 
	C348.897095,462.870178 348.086945,466.324615 346.866302,468.384918 
	C344.694214,472.051056 341.016785,471.719757 337.694946,469.775757 
	C334.601257,467.965302 333.780884,465.100983 334.985748,461.719299 
	C335.256927,460.958252 335.682648,460.252258 336.308594,459.252625 
z"/>
<path fill="#47704C" opacity="1.000000" stroke="none" 
	d="
M160.939896,406.218811 
	C164.130661,418.549286 164.545380,430.487213 159.402191,441.945618 
	C155.422043,450.812958 147.789520,454.647034 138.302032,454.987671 
	C127.415512,455.378540 118.510757,451.531738 114.211372,441.151276 
	C109.107018,428.827362 108.943474,416.004150 114.271614,403.624084 
	C117.895294,395.204407 124.855415,390.714752 134.020996,390.029694 
	C144.932709,389.214081 154.004929,392.281097 159.314896,402.727631 
	C159.840332,403.761322 160.351852,404.802124 160.939896,406.218811 
z"/>
</svg>